<?xml version="1.0" encoding="UTF-8"?>
<svg id="Layer_1" data-name="Layer 1" xmlns="http://www.w3.org/2000/svg" viewBox="0 0 37.13 14.16">
  <defs>
    <style>
      .cls-1 {
        fill: none;
      }

      .cls-1, .cls-2 {
        opacity: .85;
      }

      .cls-3 {
        fill: #c5ea3f;
      }

      .cls-4 {
        fill: #11272b;
      }

      .cls-2 {
        fill: #5edb35;
      }
    </style>
  </defs>
  <path class="cls-2" d="m9.65,10.88c.82,0,1.5-.67,1.35-1.48-.1-.51-.24-1-.43-1.48-.38-.94-.93-1.79-1.62-2.51-.69-.72-1.52-1.29-2.43-1.68-.45-.19-.91-.34-1.38-.44-.8-.17-1.48.51-1.48,1.34v4.76c0,.82.67,1.49,1.49,1.49h4.5Z"/>
  <g class="cls-1">
    <path class="cls-3" d="m7.73,10.88c-.82,0-1.5-.67-1.35-1.48.1-.51.24-1,.43-1.48.38-.94.93-1.79,1.62-2.51.69-.72,1.52-1.29,2.43-1.68.45-.19.91-.34,1.38-.44.8-.17,1.48.51,1.48,1.34v4.76c0,.82-.67,1.49-1.49,1.49h-4.5Z"/>
  </g>
  <g>
    <path class="cls-4" d="m20.18,4.1l-.87,2.52h-.9l-.87-2.52h.75l.57,1.82.57-1.82h.75Z"/>
    <path class="cls-4" d="m22.31,5.75h-1.32c0,.11.04.19.09.24.05.05.12.08.21.08.12,0,.2-.05.25-.16h.75c-.03.14-.09.26-.18.37s-.2.19-.34.26c-.14.06-.29.09-.45.09-.2,0-.37-.04-.53-.12s-.27-.2-.36-.36c-.09-.15-.13-.34-.13-.55s.04-.39.13-.54c.09-.15.21-.27.36-.36.15-.08.33-.12.53-.12s.37.04.52.12c.15.08.27.2.36.35.09.15.13.33.13.53,0,.05,0,.11-.01.16Zm-.7-.34c0-.09-.03-.15-.09-.2s-.13-.07-.21-.07-.16.02-.21.07c-.05.05-.09.11-.11.21h.62Z"/>
    <path class="cls-4" d="m23.7,4.67c.1.05.18.13.23.22v-.28h.7v1.98c0,.19-.04.36-.11.51-.07.15-.18.27-.33.36-.15.09-.34.14-.57.14-.31,0-.56-.07-.74-.22s-.29-.34-.32-.59h.69c.01.06.05.11.11.15s.13.05.22.05c.24,0,.36-.13.36-.4v-.26c-.05.09-.13.17-.23.22-.1.05-.22.08-.36.08-.16,0-.3-.04-.43-.12-.13-.08-.23-.2-.31-.36-.07-.16-.11-.34-.11-.54s.04-.39.11-.54c.07-.15.18-.27.31-.36.13-.08.27-.12.43-.12.14,0,.25.03.36.08Zm.13.64c-.07-.07-.16-.11-.26-.11s-.19.04-.26.11c-.07.07-.1.17-.1.31s.03.23.1.31c.07.07.16.11.26.11s.19-.04.26-.11c.07-.07.11-.18.11-.31s-.04-.23-.11-.3Z"/>
    <path class="cls-4" d="m25.09,4.32c-.07-.07-.11-.15-.11-.26s.04-.19.11-.26c.07-.07.17-.1.3-.1s.22.03.29.1c.07.07.11.16.11.26s-.04.19-.11.26c-.07.07-.17.1-.29.1s-.22-.03-.3-.1Zm.64.29v2h-.7v-2h.7Z"/>
    <path class="cls-4" d="m28.03,5.75h-1.32c0,.11.04.19.09.24.05.05.12.08.21.08.12,0,.2-.05.25-.16h.75c-.03.14-.09.26-.18.37s-.2.19-.34.26c-.14.06-.29.09-.45.09-.2,0-.37-.04-.53-.12s-.27-.2-.36-.36c-.09-.15-.13-.34-.13-.55s.04-.39.13-.54c.09-.15.21-.27.36-.36.15-.08.33-.12.53-.12s.37.04.52.12c.15.08.27.2.36.35.09.15.13.33.13.53,0,.05,0,.11-.01.16Zm-.7-.34c0-.09-.03-.15-.09-.2s-.13-.07-.21-.07-.16.02-.21.07c-.05.05-.09.11-.11.21h.62Z"/>
    <path class="cls-4" d="m28.7,6.55c-.14-.06-.25-.14-.34-.25-.08-.11-.13-.23-.14-.36h.68c0,.06.04.11.09.15s.11.05.19.05c.06,0,.1-.01.14-.04s.05-.05.05-.09c0-.05-.03-.09-.08-.11s-.15-.05-.27-.08c-.14-.03-.26-.06-.36-.1-.1-.04-.18-.09-.25-.18-.07-.08-.11-.19-.11-.33,0-.12.03-.23.1-.32.06-.1.16-.17.28-.23.12-.06.28-.09.45-.09.26,0,.47.06.62.19.15.13.24.3.26.51h-.63c-.01-.06-.04-.11-.08-.15s-.1-.05-.18-.05c-.06,0-.1.01-.13.03-.03.02-.04.05-.04.09,0,.05.03.08.08.11.05.02.14.05.26.08.15.03.27.07.36.1.1.04.18.1.25.18.07.08.11.2.11.34,0,.12-.03.22-.1.31-.07.09-.16.17-.29.22-.12.05-.27.08-.44.08-.18,0-.34-.03-.48-.09Z"/>
    <path class="cls-4" d="m19.65,10.18l-.2-.19c-.23.15-.5.23-.81.23-.2,0-.37-.03-.52-.1-.15-.06-.26-.15-.34-.27-.08-.12-.12-.25-.12-.4s.04-.29.12-.42.2-.23.36-.31c-.06-.08-.1-.15-.13-.22-.03-.07-.04-.14-.04-.22,0-.12.03-.24.1-.34.06-.1.16-.18.28-.24s.27-.09.44-.09.32.03.44.09c.12.06.21.15.27.25.06.1.09.22.09.34h-.65c0-.05-.02-.1-.05-.12-.03-.03-.07-.04-.11-.04-.05,0-.09.01-.12.04s-.05.06-.05.11c0,.08.06.18.18.3l.59.58s.04-.09.07-.15l.07-.13h.69l-.1.2c-.09.2-.18.38-.28.52l.6.59h-.79Zm-.63-.6l-.5-.47c-.06.04-.11.08-.14.13s-.05.1-.05.15c0,.08.03.14.09.19.06.05.15.08.25.08.13,0,.24-.03.34-.08Z"/>
    <path class="cls-4" d="m22.25,8.49c-.04-.07-.1-.12-.17-.15-.07-.04-.15-.05-.25-.05-.18,0-.31.06-.42.17-.1.11-.15.27-.15.46,0,.22.05.38.16.49.11.11.27.17.47.17.25,0,.42-.11.52-.33h-.7v-.5h1.31v.68c-.05.13-.14.26-.24.37-.11.12-.24.21-.4.29s-.35.11-.55.11c-.25,0-.48-.05-.67-.16-.19-.11-.34-.26-.45-.45s-.16-.42-.16-.67.05-.47.16-.66c.11-.19.26-.35.45-.45s.42-.16.67-.16c.32,0,.58.08.79.23.21.15.34.36.39.63h-.75Z"/>
    <path class="cls-4" d="m24.33,8.26c.11-.07.23-.1.36-.1v.75h-.2c-.15,0-.27.03-.34.09-.07.06-.11.16-.11.31v.87h-.7v-2h.7v.35c.08-.11.17-.2.29-.27Z"/>
    <path class="cls-4" d="m26.84,9.32h-1.32c0,.11.04.19.09.24.05.05.12.08.21.08.12,0,.2-.05.25-.16h.75c-.03.14-.09.26-.18.37s-.2.19-.34.26c-.14.06-.29.09-.45.09-.2,0-.37-.04-.53-.12s-.27-.2-.36-.36c-.09-.15-.13-.34-.13-.55s.04-.39.13-.54c.09-.15.21-.27.36-.36.15-.08.33-.12.53-.12s.37.04.52.12c.15.08.27.2.36.35.09.15.13.33.13.53,0,.05,0,.11-.01.16Zm-.7-.34c0-.09-.03-.15-.09-.2s-.13-.07-.21-.07-.16.02-.21.07c-.05.05-.09.11-.11.21h.62Z"/>
    <path class="cls-4" d="m29.04,9.32h-1.32c0,.11.04.19.09.24.05.05.12.08.21.08.12,0,.2-.05.25-.16h.75c-.03.14-.09.26-.18.37s-.2.19-.34.26c-.14.06-.29.09-.45.09-.2,0-.37-.04-.53-.12s-.27-.2-.36-.36c-.09-.15-.13-.34-.13-.55s.04-.39.13-.54c.09-.15.21-.27.36-.36.15-.08.33-.12.53-.12s.37.04.52.12c.15.08.27.2.36.35.09.15.13.33.13.53,0,.05,0,.11-.01.16Zm-.7-.34c0-.09-.03-.15-.09-.2s-.13-.07-.21-.07-.16.02-.21.07c-.05.05-.09.11-.11.21h.62Z"/>
    <path class="cls-4" d="m31.2,8.39c.14.15.2.36.2.62v1.17h-.7v-1.07c0-.11-.03-.2-.09-.27-.06-.07-.14-.1-.24-.1-.11,0-.19.03-.25.1-.06.07-.09.16-.09.27v1.07h-.7v-2h.7v.29c.06-.09.15-.16.25-.22.1-.06.22-.08.36-.08.23,0,.41.08.55.23Z"/>
    <path class="cls-4" d="m32.16,10.12c-.14-.06-.25-.14-.34-.25-.08-.11-.13-.23-.14-.36h.68c0,.06.04.11.09.15s.11.05.19.05c.06,0,.1-.01.14-.04.03-.02.05-.05.05-.09,0-.05-.03-.09-.08-.11-.05-.02-.15-.05-.27-.08-.14-.03-.26-.06-.36-.1-.1-.04-.18-.09-.25-.18-.07-.08-.11-.19-.11-.33,0-.12.03-.23.1-.32.06-.1.16-.17.28-.23.13-.06.28-.09.45-.09.26,0,.47.06.62.19s.24.3.26.51h-.63c-.01-.06-.04-.11-.08-.15s-.1-.05-.18-.05c-.06,0-.1.01-.13.03-.03.02-.04.05-.04.09,0,.05.03.08.08.11.05.02.14.05.26.08.14.03.27.07.36.1s.18.1.25.18.11.2.11.34c0,.12-.03.22-.1.31-.07.09-.16.17-.29.22-.13.05-.27.08-.44.08-.18,0-.34-.03-.48-.09Z"/>
  </g>
</svg>