<?xml version="1.0" encoding="UTF-8"?><svg id="Calque_1" xmlns="http://www.w3.org/2000/svg" width="60.78mm" height="9.03mm" viewBox="0 0 172.3 25.6"><defs><style>.cls-1{fill:#11142d;}.cls-2{fill:#c5ea3f;}.cls-3{fill:#5edb35;}</style></defs><path class="cls-3" d="m20.1,25.6c2.8,0,5-2.3,4.5-5-.3-1.7-.8-3.4-1.4-5-1.3-3.2-3.1-6-5.4-8.4-2.4-2.4-5.1-4.3-8.2-5.6C8.1.9,6.6.4,5,.1,2.3-.5,0,1.8,0,4.6v16c0,2.8,2.2,5,5,5h15.1Z"/><path class="cls-2" d="m13.7,25.6c-2.8,0-5-2.3-4.5-5,.3-1.7.8-3.4,1.4-5,1.3-3.2,3.1-6,5.4-8.4,2.3-2.4,5.1-4.3,8.2-5.6,1.5-.6,3.1-1.1,4.7-1.5,2.7-.6,5,1.7,5,4.5v16c0,2.8-2.2,5-5,5h-15.2Z"/><path class="cls-1" d="m45.7,18.9l-4.6-12.9h2.8l3.3,9.5,3.2-9.5h2.8l-4.6,12.9h-2.9Z"/><path class="cls-1" d="m58.8,16l2.5.4c-.3.9-.8,1.6-1.5,2.1s-1.5.7-2.6.7c-1.6,0-2.8-.5-3.6-1.6-.6-.8-.9-1.9-.9-3.2,0-1.5.4-2.8,1.2-3.6s1.8-1.3,3.1-1.3c1.4,0,2.5.5,3.3,1.4s1.2,2.3,1.2,4.2h-6.2c0,.7.2,1.3.6,1.7.4.4.9.6,1.4.6.4,0,.7-.1,1-.3s.3-.7.5-1.1Zm.1-2.5c0-.7-.2-1.3-.6-1.6-.4-.4-.8-.6-1.3-.6s-1,.2-1.3.6-.5.9-.5,1.6h3.7Z"/><path class="cls-1" d="m63.2,19.5l2.8.3c0,.3.2.6.3.7.2.2.6.3,1.1.3.6,0,1.1-.1,1.5-.3.2-.1.4-.3.5-.6.1-.2.1-.6.1-1.1v-1.4c-.7,1-1.7,1.5-2.8,1.5-1.3,0-2.2-.5-3-1.6-.6-.8-.9-1.9-.9-3.1,0-1.6.4-2.8,1.1-3.6s1.7-1.2,2.8-1.2c1.2,0,2.1.5,2.9,1.5v-1.3h2.3v8.4c0,1.1-.1,1.9-.3,2.5s-.4,1-.8,1.3-.8.6-1.3.7-1.2.3-2.1.3c-1.6,0-2.7-.3-3.4-.8s-1-1.2-1-2.1c.1-.1.2-.2.2-.4Zm2.2-5.4c0,1,.2,1.7.6,2.2s.9.7,1.4.7c.6,0,1.1-.2,1.5-.7s.6-1.2.6-2.1c0-1-.2-1.7-.6-2.2s-.9-.7-1.5-.7-1.1.2-1.5.7c-.3.4-.5,1.1-.5,2.1Z"/><path class="cls-1" d="m74.4,8.3v-2.3h2.5v2.3h-2.5Zm0,10.6v-9.3h2.5v9.3h-2.5Z"/><path class="cls-1" d="m84.8,16l2.5.4c-.3.9-.8,1.6-1.5,2.1s-1.5.7-2.6.7c-1.6,0-2.8-.5-3.6-1.6-.6-.8-.9-1.9-.9-3.2,0-1.5.4-2.8,1.2-3.6s1.8-1.3,3.1-1.3c1.4,0,2.5.5,3.3,1.4s1.2,2.3,1.2,4.2h-6.2c0,.7.2,1.3.6,1.7.4.4.9.6,1.4.6.4,0,.7-.1,1-.3s.4-.7.5-1.1Zm.1-2.5c0-.7-.2-1.3-.6-1.6-.4-.4-.8-.6-1.3-.6s-1,.2-1.3.6-.5.9-.5,1.6h3.7Z"/><path class="cls-1" d="m88.5,16.3l2.5-.4c.1.5.3.8.6,1.1.3.2.8.4,1.4.4s1.1-.1,1.4-.4c.2-.2.3-.4.3-.7,0-.2-.1-.3-.2-.5-.1-.1-.4-.2-.8-.3-2-.4-3.3-.8-3.8-1.2-.7-.5-1.1-1.2-1.1-2.1,0-.8.3-1.5,1-2s1.6-.8,3-.8c1.3,0,2.2.2,2.8.6s1,1,1.3,1.8l-2.3.4c-.1-.4-.3-.6-.6-.8s-.7-.3-1.2-.3c-.7,0-1.1.1-1.4.3-.2.1-.3.3-.3.5s.1.3.2.4c.2.2,1,.4,2.3.7s2.2.7,2.8,1.1c.5.4.8,1.1.8,1.8,0,.9-.4,1.6-1.1,2.2s-1.8.9-3.2.9c-1.3,0-2.3-.3-3-.8-.7-.3-1.1-1-1.4-1.9Z"/><path class="cls-1" d="m110.8,17.4l-1.5,1.9c-.7-.4-1.4-.8-2.1-1.5-.5.5-1.1.8-1.7,1s-1.3.3-2.1.3c-1.6,0-2.8-.5-3.6-1.4-.6-.7-.9-1.5-.9-2.4,0-.8.2-1.6.7-2.2.5-.7,1.2-1.2,2.2-1.7-.4-.5-.8-1-1-1.5s-.3-.9-.3-1.3c0-.8.3-1.4.9-2,.6-.5,1.5-.8,2.7-.8,1.1,0,2,.3,2.6.9s.9,1.3.9,2.1c0,.5-.2,1-.5,1.5s-.9,1-1.9,1.6l1.8,2.4c.2-.4.4-.9.5-1.5l2.2.5c-.2.8-.4,1.4-.6,1.7-.2.4-.3.7-.5.9.3.3.6.5,1.1.8.6.4.9.6,1.1.7Zm-7.7-4.4c-.6.3-1,.6-1.3,1s-.4.8-.4,1.2c0,.5.2,1,.5,1.3.3.3.8.5,1.4.5.4,0,.8-.1,1.1-.2s.7-.4,1.2-.8l-2.5-3Zm1-2.6l.7-.5c.5-.4.7-.8.7-1.1s-.1-.6-.4-.8c-.2-.2-.6-.3-1-.3s-.7.1-.9.3c-.2.2-.3.4-.3.7s.2.7.6,1.1l.6.6Z"/><path class="cls-1" d="m118.4,14.2v-2.2h5.6v5.1c-.5.5-1.3,1-2.4,1.4-1,.4-2.1.6-3.1.6-1.3,0-2.5-.3-3.5-.8-1-.6-1.8-1.4-2.3-2.4-.5-1.1-.8-2.2-.8-3.4,0-1.3.3-2.5.8-3.6s1.4-1.8,2.5-2.4c.8-.4,1.9-.6,3.1-.6,1.6,0,2.8.3,3.7,1s1.5,1.6,1.7,2.8l-2.6.5c-.2-.6-.5-1.1-1-1.5s-1.1-.5-1.9-.5c-1.1,0-2,.4-2.7,1.1-.7.7-1,1.8-1,3.2,0,1.5.3,2.7,1,3.4.7.8,1.6,1.1,2.7,1.1.5,0,1.1-.1,1.6-.3.5-.2,1-.5,1.4-.8v-1.6h-2.8v-.1Z"/><path class="cls-1" d="m128.8,18.9h-2.5v-9.3h2.3v1.3c.4-.6.7-1,1.1-1.2s.7-.3,1.1-.3c.6,0,1.1.2,1.6.5l-.8,2.2c-.4-.3-.8-.4-1.2-.4-.3,0-.6.1-.9.3-.2.2-.4.5-.6,1-.1.5-.2,1.5-.2,3.1v2.8h.1Z"/><path class="cls-1" d="m138.8,16l2.5.4c-.3.9-.8,1.6-1.5,2.1s-1.5.7-2.6.7c-1.6,0-2.8-.5-3.6-1.6-.6-.8-.9-1.9-.9-3.2,0-1.5.4-2.8,1.2-3.6s1.8-1.3,3.1-1.3c1.4,0,2.5.5,3.3,1.4s1.2,2.3,1.2,4.2h-6.2c0,.7.2,1.3.6,1.7.4.4.9.6,1.4.6.4,0,.7-.1,1-.3s.4-.7.5-1.1Zm.2-2.5c0-.7-.2-1.3-.6-1.6-.4-.4-.8-.6-1.3-.6s-1,.2-1.3.6-.5.9-.5,1.6h3.7Z"/><path class="cls-1" d="m148.8,16l2.5.4c-.3.9-.8,1.6-1.5,2.1s-1.5.7-2.6.7c-1.6,0-2.8-.5-3.6-1.6-.6-.8-.9-1.9-.9-3.2,0-1.5.4-2.8,1.2-3.6s1.8-1.3,3.1-1.3c1.4,0,2.5.5,3.3,1.4s1.2,2.3,1.2,4.2h-6.2c0,.7.2,1.3.6,1.7.4.4.9.6,1.4.6.4,0,.7-.1,1-.3s.4-.7.5-1.1Zm.2-2.5c0-.7-.2-1.3-.6-1.6-.4-.4-.8-.6-1.3-.6s-1,.2-1.3.6-.5.9-.5,1.6h3.7Z"/><path class="cls-1" d="m161.9,18.9h-2.5v-4.8c0-1-.1-1.7-.2-2s-.3-.5-.5-.7-.5-.2-.9-.2-.8.1-1.2.4-.6.5-.7.9c-.1.4-.2,1.1-.2,2.1v4.2h-2.5v-9.2h2.3v1.4c.8-1.1,1.8-1.6,3.1-1.6.5,0,1,.1,1.5.3s.8.4,1,.8.4.7.5,1c.1.4.1.9.1,1.7v5.7h.2Z"/><path class="cls-1" d="m163.6,16.3l2.5-.4c.1.5.3.8.6,1.1.3.2.8.4,1.4.4s1.1-.1,1.4-.4c.2-.2.3-.4.3-.7,0-.2-.1-.3-.2-.5-.1-.1-.4-.2-.8-.3-2-.4-3.3-.8-3.8-1.2-.7-.5-1.1-1.2-1.1-2.1,0-.8.3-1.5,1-2s1.6-.8,3-.8c1.3,0,2.2.2,2.8.6s1,1,1.3,1.8l-2.3.4c-.1-.4-.3-.6-.6-.8s-.7-.3-1.2-.3c-.7,0-1.1.1-1.4.3-.2.1-.3.3-.3.5s.1.3.2.4c.2.2,1,.4,2.3.7s2.2.7,2.8,1.1c.5.4.8,1.1.8,1.8,0,.9-.4,1.6-1.1,2.2s-1.8.9-3.2.9c-1.3,0-2.3-.3-3-.8-.7-.3-1.2-1-1.4-1.9Z"/></svg>